<svg xmlns="http://www.w3.org/2000/svg" width="1000" height="800" viewBox="0 0 1000 800">
  <g fill="none" stroke="#CFCDC5" stroke-width="2">
    <path d="M0 500H1000" />
    <path d="M0 580H1000" />
  </g>

  <g fill="#F1EFE8" stroke="#157A6E" stroke-width="4">
    <circle cx="100" cy="500" r="11" />
    <circle cx="900" cy="500" r="11" />
    <circle cx="240" cy="580" r="11" />
    <circle cx="760" cy="580" r="11" />
  </g>

  <g transform="translate(225 465)">
    <rect width="100" height="62" rx="16" fill="#157A6E" stroke="#0E6258" stroke-width="3" />
    <g fill="#EAF6F2">
      <rect x="17" y="11" width="17" height="20" rx="4" />
      <rect x="41.5" y="11" width="17" height="20" rx="4" />
      <rect x="66" y="11" width="17" height="20" rx="4" />
    </g>
    <rect x="88" y="11" width="7" height="22" rx="3" fill="#FDFCF9" />
    <g fill="#20251F" stroke="#F1EFE8" stroke-width="5">
      <circle cx="24" cy="62" r="11" />
      <circle cx="76" cy="62" r="11" />
    </g>
  </g>

  <g transform="translate(675 545)">
    <rect width="100" height="62" rx="16" fill="#B86B08" stroke="#8C4F08" stroke-width="3" />
    <g fill="#FFF4DF">
      <rect x="17" y="11" width="17" height="20" rx="4" />
      <rect x="41.5" y="11" width="17" height="20" rx="4" />
      <rect x="66" y="11" width="17" height="20" rx="4" />
    </g>
    <rect x="5" y="11" width="7" height="22" rx="3" fill="#FDFCF9" />
    <g fill="#20251F" stroke="#F1EFE8" stroke-width="5">
      <circle cx="24" cy="62" r="11" />
      <circle cx="76" cy="62" r="11" />
    </g>
  </g>
</svg>
